<svg width="32" height="32" viewBox="0 0 32 32" fill="none" xmlns="http://www.w3.org/2000/svg">
<path d="M31.6636 0H0.213013V32H31.6636V0Z" fill="white"/>
<g clip-path="url(#clip0)">
<path d="M22.4181 12.7411C22.4281 12.8833 22.4281 13.0254 22.4281 13.1675C22.4281 17.5025 19.1509 22.4975 13.161 22.4975C11.3156 22.4975 9.60132 21.9594 8.1593 21.0254C8.42149 21.0558 8.67357 21.066 8.94585 21.066C10.4685 21.066 11.8702 20.5483 12.9895 19.665C11.5576 19.6345 10.3576 18.6904 9.94415 17.3909C10.1458 17.4213 10.3475 17.4416 10.5593 17.4416C10.8517 17.4416 11.1442 17.401 11.4164 17.33C9.92401 17.0254 8.80465 15.7056 8.80465 14.1117V14.0711C9.23825 14.3148 9.74249 14.467 10.2769 14.4873C9.39959 13.8985 8.82483 12.8934 8.82483 11.7563C8.82483 11.1472 8.98614 10.5888 9.26851 10.1015C10.8719 12.0914 13.282 13.3908 15.9844 13.533C15.934 13.2893 15.9038 13.0356 15.9038 12.7818C15.9038 10.9746 17.3559 9.50256 19.1609 9.50256C20.0987 9.50256 20.9457 9.8985 21.5407 10.5381C22.2768 10.396 22.9827 10.1218 23.6079 9.74622C23.3659 10.5077 22.8516 11.1473 22.176 11.5533C22.8315 11.4823 23.4668 11.2995 24.0516 11.0457C23.608 11.6954 23.0533 12.2741 22.4181 12.7411Z" fill="black"/>
</g>
<defs>
<clipPath id="clip0">
<rect width="15.8924" height="16" fill="white" transform="translate(8.1593 8)"/>
</clipPath>
</defs>
</svg>
